<?xml version="1.0" standalone="no"?><svg xmlns:xlink="http://www.w3.org/1999/xlink" xmlns="http://www.w3.org/2000/svg" viewBox="0 0 1920 1016.4766895359517" preserveAspectRatio="xMaxYMax slice"><g transform="scale(2.0744422235427584)"><rect x="0" y="0" width="925.5555555555555" height="490" fill="#3b3b3b"/><g transform="translate(0,0) scale(2.722) rotate(0)"><path d="M10 5L5 0L0 5L5 10L0 15L5 20L10 15L15 20L20 15L15 10L20 5L15 0L10 5Z" fill="#313c6b"/></g><g transform="translate(54.44,0) scale(2.722) rotate(0)"><path d="M10 5L5 0L0 5L5 10L0 15L5 20L10 15L15 20L20 15L15 10L20 5L15 0L10 5Z" fill="#3a3b40"/></g><g transform="translate(108.89,0) scale(2.722) rotate(0)"><path d="M10 5L5 0L0 5L5 10L0 15L5 20L10 15L15 20L20 15L15 10L20 5L15 0L10 5Z" fill="#753947"/></g><g transform="translate(163.33,0) scale(2.722) rotate(0)"><path d="M10 5L5 0L0 5L5 10L0 15L5 20L10 15L15 20L20 15L15 10L20 5L15 0L10 5Z" fill="#303c70"/></g><g transform="translate(217.78,0) scale(2.722) rotate(0)"><path d="M10 5L5 0L0 5L5 10L0 15L5 20L10 15L15 20L20 15L15 10L20 5L15 0L10 5Z" fill="#3b3b3d"/></g><g transform="translate(272.22,0) scale(2.722) rotate(0)"><path d="M10 5L5 0L0 5L5 10L0 15L5 20L10 15L15 20L20 15L15 10L20 5L15 0L10 5Z" fill="#92384d"/></g><g transform="translate(326.67,0) scale(2.722) rotate(0)"><path d="M10 5L5 0L0 5L5 10L0 15L5 20L10 15L15 20L20 15L15 10L20 5L15 0L10 5Z" fill="#493b3e"/></g><g transform="translate(381.11,0) scale(2.722) rotate(0)"><path d="M10 5L5 0L0 5L5 10L0 15L5 20L10 15L15 20L20 15L15 10L20 5L15 0L10 5Z" fill="#643a44"/></g><g transform="translate(435.56,0) scale(2.722) rotate(0)"><path d="M10 5L5 0L0 5L5 10L0 15L5 20L10 15L15 20L20 15L15 10L20 5L15 0L10 5Z" fill="#383b49"/></g><g transform="translate(490,0) scale(2.722) rotate(0)"><path d="M10 5L5 0L0 5L5 10L0 15L5 20L10 15L15 20L20 15L15 10L20 5L15 0L10 5Z" fill="#283d94"/></g><g transform="translate(544.44,0) scale(2.722) rotate(0)"><path d="M10 5L5 0L0 5L5 10L0 15L5 20L10 15L15 20L20 15L15 10L20 5L15 0L10 5Z" fill="#183fdf"/></g><rect x="598.8888888888889" y="0" width="54.44444444444444" height="54.44444444444444" fill="#3b3b3b"/><g transform="translate(598.89,0) scale(1.361) rotate(0)"><path d="M10 5L5 0L0 5L5 10L0 15L5 20L10 15L15 20L20 15L15 10L20 5L15 0L10 5Z" fill="#393b42"/></g><g transform="translate(626.11,0) scale(1.361) rotate(0)"><path d="M10 5L5 0L0 5L5 10L0 15L5 20L10 15L15 20L20 15L15 10L20 5L15 0L10 5Z" fill="#2a3d8c"/></g><g transform="translate(598.89,27.22) scale(1.361) rotate(0)"><path d="M10 5L5 0L0 5L5 10L0 15L5 20L10 15L15 20L20 15L15 10L20 5L15 0L10 5Z" fill="#8e384d"/></g><g transform="translate(626.11,27.22) scale(1.361) rotate(0)"><path d="M10 5L5 0L0 5L5 10L0 15L5 20L10 15L15 20L20 15L15 10L20 5L15 0L10 5Z" fill="#303c6e"/></g><g transform="translate(653.33,0) scale(2.722) rotate(0)"><path d="M10 5L5 0L0 5L5 10L0 15L5 20L10 15L15 20L20 15L15 10L20 5L15 0L10 5Z" fill="#f33562"/></g><g transform="translate(707.78,0) scale(2.722) rotate(0)"><path d="M10 5L5 0L0 5L5 10L0 15L5 20L10 15L15 20L20 15L15 10L20 5L15 0L10 5Z" fill="#213eb7"/></g><g transform="translate(762.22,0) scale(2.722) rotate(0)"><path d="M10 5L5 0L0 5L5 10L0 15L5 20L10 15L15 20L20 15L15 10L20 5L15 0L10 5Z" fill="#d0365a"/></g><g transform="translate(816.67,0) scale(2.722) rotate(0)"><path d="M10 5L5 0L0 5L5 10L0 15L5 20L10 15L15 20L20 15L15 10L20 5L15 0L10 5Z" fill="#733947"/></g><g transform="translate(871.11,0) scale(2.722) rotate(0)"><path d="M10 5L5 0L0 5L5 10L0 15L5 20L10 15L15 20L20 15L15 10L20 5L15 0L10 5Z" fill="#d8365c"/></g><g transform="translate(0,54.44) scale(2.722) rotate(0)"><path d="M10 5L5 0L0 5L5 10L0 15L5 20L10 15L15 20L20 15L15 10L20 5L15 0L10 5Z" fill="#383b4a"/></g><g transform="translate(54.44,54.44) scale(2.722) rotate(0)"><path d="M10 5L5 0L0 5L5 10L0 15L5 20L10 15L15 20L20 15L15 10L20 5L15 0L10 5Z" fill="#2d3d7e"/></g><g transform="translate(108.89,54.44) scale(2.722) rotate(0)"><path d="M10 5L5 0L0 5L5 10L0 15L5 20L10 15L15 20L20 15L15 10L20 5L15 0L10 5Z" fill="#c93759"/></g><rect x="163.33333333333331" y="54.44444444444444" width="54.44444444444444" height="54.44444444444444" fill="#3b3b3b"/><g transform="translate(163.33,54.44) scale(1.361) rotate(0)"><path d="M10 5L5 0L0 5L5 10L0 15L5 20L10 15L15 20L20 15L15 10L20 5L15 0L10 5Z" fill="#2f3c76"/></g><g transform="translate(190.56,54.44) scale(1.361) rotate(0)"><path d="M10 5L5 0L0 5L5 10L0 15L5 20L10 15L15 20L20 15L15 10L20 5L15 0L10 5Z" fill="#203eba"/></g><g transform="translate(163.33,81.67) scale(1.361) rotate(0)"><path d="M10 5L5 0L0 5L5 10L0 15L5 20L10 15L15 20L20 15L15 10L20 5L15 0L10 5Z" fill="#203eb9"/></g><g transform="translate(190.56,81.67) scale(1.361) rotate(0)"><path d="M10 5L5 0L0 5L5 10L0 15L5 20L10 15L15 20L20 15L15 10L20 5L15 0L10 5Z" fill="#1d3ecb"/></g><rect x="217.77777777777777" y="54.44444444444444" width="54.44444444444444" height="54.44444444444444" fill="#3b3b3b"/><g transform="translate(217.78,54.44) scale(1.361) rotate(0)"><path d="M10 5L5 0L0 5L5 10L0 15L5 20L10 15L15 20L20 15L15 10L20 5L15 0L10 5Z" fill="#183fe0"/></g><g transform="translate(245,54.44) scale(1.361) rotate(0)"><path d="M10 5L5 0L0 5L5 10L0 15L5 20L10 15L15 20L20 15L15 10L20 5L15 0L10 5Z" fill="#333c61"/></g><g transform="translate(217.78,81.67) scale(1.361) rotate(0)"><path d="M10 5L5 0L0 5L5 10L0 15L5 20L10 15L15 20L20 15L15 10L20 5L15 0L10 5Z" fill="#3b3b3b"/></g><g transform="translate(245,81.67) scale(1.361) rotate(0)"><path d="M10 5L5 0L0 5L5 10L0 15L5 20L10 15L15 20L20 15L15 10L20 5L15 0L10 5Z" fill="#95384e"/></g><rect x="272.22222222222223" y="54.44444444444444" width="54.44444444444444" height="54.44444444444444" fill="#3b3b3b"/><g transform="translate(272.22,54.44) scale(1.361) rotate(0)"><path d="M10 5L5 0L0 5L5 10L0 15L5 20L10 15L15 20L20 15L15 10L20 5L15 0L10 5Z" fill="#363c50"/></g><g transform="translate(299.44,54.44) scale(1.361) rotate(0)"><path d="M10 5L5 0L0 5L5 10L0 15L5 20L10 15L15 20L20 15L15 10L20 5L15 0L10 5Z" fill="#203ebc"/></g><g transform="translate(272.22,81.67) scale(1.361) rotate(0)"><path d="M10 5L5 0L0 5L5 10L0 15L5 20L10 15L15 20L20 15L15 10L20 5L15 0L10 5Z" fill="#ae3753"/></g><g transform="translate(299.44,81.67) scale(1.361) rotate(0)"><path d="M10 5L5 0L0 5L5 10L0 15L5 20L10 15L15 20L20 15L15 10L20 5L15 0L10 5Z" fill="#5b3a42"/></g><g transform="translate(326.67,54.44) scale(2.722) rotate(0)"><path d="M10 5L5 0L0 5L5 10L0 15L5 20L10 15L15 20L20 15L15 10L20 5L15 0L10 5Z" fill="#373b50"/></g><g transform="translate(381.11,54.44) scale(2.722) rotate(0)"><path d="M10 5L5 0L0 5L5 10L0 15L5 20L10 15L15 20L20 15L15 10L20 5L15 0L10 5Z" fill="#7f3949"/></g><g transform="translate(435.56,54.44) scale(2.722) rotate(0)"><path d="M10 5L5 0L0 5L5 10L0 15L5 20L10 15L15 20L20 15L15 10L20 5L15 0L10 5Z" fill="#313c6b"/></g><g transform="translate(490,54.44) scale(2.722) rotate(0)"><path d="M10 5L5 0L0 5L5 10L0 15L5 20L10 15L15 20L20 15L15 10L20 5L15 0L10 5Z" fill="#2a3d8b"/></g><rect x="544.4444444444445" y="54.44444444444444" width="54.44444444444444" height="54.44444444444444" fill="#3b3b3b"/><g transform="translate(544.44,54.44) scale(1.361) rotate(0)"><path d="M10 5L5 0L0 5L5 10L0 15L5 20L10 15L15 20L20 15L15 10L20 5L15 0L10 5Z" fill="#2c3d82"/></g><g transform="translate(571.67,54.44) scale(1.361) rotate(0)"><path d="M10 5L5 0L0 5L5 10L0 15L5 20L10 15L15 20L20 15L15 10L20 5L15 0L10 5Z" fill="#d7365c"/></g><g transform="translate(544.44,81.67) scale(1.361) rotate(0)"><path d="M10 5L5 0L0 5L5 10L0 15L5 20L10 15L15 20L20 15L15 10L20 5L15 0L10 5Z" fill="#253ea3"/></g><g transform="translate(571.67,81.67) scale(1.361) rotate(0)"><path d="M10 5L5 0L0 5L5 10L0 15L5 20L10 15L15 20L20 15L15 10L20 5L15 0L10 5Z" fill="#253ea4"/></g><g transform="translate(598.89,54.44) scale(2.722) rotate(0)"><path d="M10 5L5 0L0 5L5 10L0 15L5 20L10 15L15 20L20 15L15 10L20 5L15 0L10 5Z" fill="#2b3d86"/></g><g transform="translate(653.33,54.44) scale(2.722) rotate(0)"><path d="M10 5L5 0L0 5L5 10L0 15L5 20L10 15L15 20L20 15L15 10L20 5L15 0L10 5Z" fill="#203ebb"/></g><g transform="translate(707.78,54.44) scale(2.722) rotate(0)"><path d="M10 5L5 0L0 5L5 10L0 15L5 20L10 15L15 20L20 15L15 10L20 5L15 0L10 5Z" fill="#fb3564"/></g><g transform="translate(762.22,54.44) scale(2.722) rotate(0)"><path d="M10 5L5 0L0 5L5 10L0 15L5 20L10 15L15 20L20 15L15 10L20 5L15 0L10 5Z" fill="#94384e"/></g><g transform="translate(816.67,54.44) scale(2.722) rotate(0)"><path d="M10 5L5 0L0 5L5 10L0 15L5 20L10 15L15 20L20 15L15 10L20 5L15 0L10 5Z" fill="#333c5f"/></g><g transform="translate(871.11,54.44) scale(2.722) rotate(0)"><path d="M10 5L5 0L0 5L5 10L0 15L5 20L10 15L15 20L20 15L15 10L20 5L15 0L10 5Z" fill="#193fdd"/></g><g transform="translate(0,108.89) scale(2.722) rotate(0)"><path d="M10 5L5 0L0 5L5 10L0 15L5 20L10 15L15 20L20 15L15 10L20 5L15 0L10 5Z" fill="#bb3756"/></g><rect x="54.44444444444444" y="108.88888888888889" width="54.44444444444444" height="54.44444444444444" fill="#3b3b3b"/><g transform="translate(54.44,108.89) scale(1.361) rotate(0)"><path d="M10 5L5 0L0 5L5 10L0 15L5 20L10 15L15 20L20 15L15 10L20 5L15 0L10 5Z" fill="#753947"/></g><g transform="translate(81.67,108.89) scale(1.361) rotate(0)"><path d="M10 5L5 0L0 5L5 10L0 15L5 20L10 15L15 20L20 15L15 10L20 5L15 0L10 5Z" fill="#363c51"/></g><g transform="translate(54.44,136.11) scale(1.361) rotate(0)"><path d="M10 5L5 0L0 5L5 10L0 15L5 20L10 15L15 20L20 15L15 10L20 5L15 0L10 5Z" fill="#1e3ec6"/></g><g transform="translate(81.67,136.11) scale(1.361) rotate(0)"><path d="M10 5L5 0L0 5L5 10L0 15L5 20L10 15L15 20L20 15L15 10L20 5L15 0L10 5Z" fill="#85394b"/></g><g transform="translate(108.89,108.89) scale(2.722) rotate(0)"><path d="M10 5L5 0L0 5L5 10L0 15L5 20L10 15L15 20L20 15L15 10L20 5L15 0L10 5Z" fill="#333c5f"/></g><g transform="translate(163.33,108.89) scale(2.722) rotate(0)"><path d="M10 5L5 0L0 5L5 10L0 15L5 20L10 15L15 20L20 15L15 10L20 5L15 0L10 5Z" fill="#393b43"/></g><g transform="translate(217.78,108.89) scale(2.722) rotate(0)"><path d="M10 5L5 0L0 5L5 10L0 15L5 20L10 15L15 20L20 15L15 10L20 5L15 0L10 5Z" fill="#dd365d"/></g><g transform="translate(272.22,108.89) scale(2.722) rotate(0)"><path d="M10 5L5 0L0 5L5 10L0 15L5 20L10 15L15 20L20 15L15 10L20 5L15 0L10 5Z" fill="#b53755"/></g><g transform="translate(326.67,108.89) scale(2.722) rotate(0)"><path d="M10 5L5 0L0 5L5 10L0 15L5 20L10 15L15 20L20 15L15 10L20 5L15 0L10 5Z" fill="#c83759"/></g><g transform="translate(381.11,108.89) scale(2.722) rotate(0)"><path d="M10 5L5 0L0 5L5 10L0 15L5 20L10 15L15 20L20 15L15 10L20 5L15 0L10 5Z" fill="#9e3850"/></g><g transform="translate(435.56,108.89) scale(2.722) rotate(0)"><path d="M10 5L5 0L0 5L5 10L0 15L5 20L10 15L15 20L20 15L15 10L20 5L15 0L10 5Z" fill="#ae3753"/></g><g transform="translate(490,108.89) scale(2.722) rotate(0)"><path d="M10 5L5 0L0 5L5 10L0 15L5 20L10 15L15 20L20 15L15 10L20 5L15 0L10 5Z" fill="#353c56"/></g><g transform="translate(544.44,108.89) scale(2.722) rotate(0)"><path d="M10 5L5 0L0 5L5 10L0 15L5 20L10 15L15 20L20 15L15 10L20 5L15 0L10 5Z" fill="#4e3a3f"/></g><g transform="translate(598.89,108.89) scale(2.722) rotate(0)"><path d="M10 5L5 0L0 5L5 10L0 15L5 20L10 15L15 20L20 15L15 10L20 5L15 0L10 5Z" fill="#5b3a42"/></g><g transform="translate(653.33,108.89) scale(2.722) rotate(0)"><path d="M10 5L5 0L0 5L5 10L0 15L5 20L10 15L15 20L20 15L15 10L20 5L15 0L10 5Z" fill="#263da0"/></g><rect x="707.7777777777777" y="108.88888888888889" width="54.44444444444444" height="54.44444444444444" fill="#3b3b3b"/><g transform="translate(707.78,108.89) scale(1.361) rotate(0)"><path d="M10 5L5 0L0 5L5 10L0 15L5 20L10 15L15 20L20 15L15 10L20 5L15 0L10 5Z" fill="#83394a"/></g><g transform="translate(735,108.89) scale(1.361) rotate(0)"><path d="M10 5L5 0L0 5L5 10L0 15L5 20L10 15L15 20L20 15L15 10L20 5L15 0L10 5Z" fill="#253da3"/></g><g transform="translate(707.78,136.11) scale(1.361) rotate(0)"><path d="M10 5L5 0L0 5L5 10L0 15L5 20L10 15L15 20L20 15L15 10L20 5L15 0L10 5Z" fill="#1e3ec7"/></g><g transform="translate(735,136.11) scale(1.361) rotate(0)"><path d="M10 5L5 0L0 5L5 10L0 15L5 20L10 15L15 20L20 15L15 10L20 5L15 0L10 5Z" fill="#b53755"/></g><g transform="translate(762.22,108.89) scale(2.722) rotate(0)"><path d="M10 5L5 0L0 5L5 10L0 15L5 20L10 15L15 20L20 15L15 10L20 5L15 0L10 5Z" fill="#8c394c"/></g><rect x="816.6666666666666" y="108.88888888888889" width="54.44444444444444" height="54.44444444444444" fill="#3b3b3b"/><g transform="translate(816.67,108.89) scale(1.361) rotate(0)"><path d="M10 5L5 0L0 5L5 10L0 15L5 20L10 15L15 20L20 15L15 10L20 5L15 0L10 5Z" fill="#303c70"/></g><g transform="translate(843.89,108.89) scale(1.361) rotate(0)"><path d="M10 5L5 0L0 5L5 10L0 15L5 20L10 15L15 20L20 15L15 10L20 5L15 0L10 5Z" fill="#443b3d"/></g><g transform="translate(816.67,136.11) scale(1.361) rotate(0)"><path d="M10 5L5 0L0 5L5 10L0 15L5 20L10 15L15 20L20 15L15 10L20 5L15 0L10 5Z" fill="#8f384d"/></g><g transform="translate(843.89,136.11) scale(1.361) rotate(0)"><path d="M10 5L5 0L0 5L5 10L0 15L5 20L10 15L15 20L20 15L15 10L20 5L15 0L10 5Z" fill="#99384f"/></g><g transform="translate(871.11,108.89) scale(2.722) rotate(0)"><path d="M10 5L5 0L0 5L5 10L0 15L5 20L10 15L15 20L20 15L15 10L20 5L15 0L10 5Z" fill="#1c3fce"/></g><g transform="translate(0,163.33) scale(2.722) rotate(0)"><path d="M10 5L5 0L0 5L5 10L0 15L5 20L10 15L15 20L20 15L15 10L20 5L15 0L10 5Z" fill="#423b3c"/></g><g transform="translate(54.44,163.33) scale(2.722) rotate(0)"><path d="M10 5L5 0L0 5L5 10L0 15L5 20L10 15L15 20L20 15L15 10L20 5L15 0L10 5Z" fill="#263d9e"/></g><rect x="108.88888888888889" y="163.33333333333331" width="54.44444444444444" height="54.44444444444444" fill="#3b3b3b"/><g transform="translate(108.89,163.33) scale(1.361) rotate(0)"><path d="M10 5L5 0L0 5L5 10L0 15L5 20L10 15L15 20L20 15L15 10L20 5L15 0L10 5Z" fill="#9a384f"/></g><g transform="translate(136.11,163.33) scale(1.361) rotate(0)"><path d="M10 5L5 0L0 5L5 10L0 15L5 20L10 15L15 20L20 15L15 10L20 5L15 0L10 5Z" fill="#293d92"/></g><g transform="translate(108.89,190.56) scale(1.361) rotate(0)"><path d="M10 5L5 0L0 5L5 10L0 15L5 20L10 15L15 20L20 15L15 10L20 5L15 0L10 5Z" fill="#283d95"/></g><g transform="translate(136.11,190.56) scale(1.361) rotate(0)"><path d="M10 5L5 0L0 5L5 10L0 15L5 20L10 15L15 20L20 15L15 10L20 5L15 0L10 5Z" fill="#b13754"/></g><g transform="translate(163.33,163.33) scale(2.722) rotate(0)"><path d="M10 5L5 0L0 5L5 10L0 15L5 20L10 15L15 20L20 15L15 10L20 5L15 0L10 5Z" fill="#de365d"/></g><g transform="translate(217.78,163.33) scale(2.722) rotate(0)"><path d="M10 5L5 0L0 5L5 10L0 15L5 20L10 15L15 20L20 15L15 10L20 5L15 0L10 5Z" fill="#9e3850"/></g><rect x="272.22222222222223" y="163.33333333333331" width="54.44444444444444" height="54.44444444444444" fill="#3b3b3b"/><g transform="translate(272.22,163.33) scale(1.361) rotate(0)"><path d="M10 5L5 0L0 5L5 10L0 15L5 20L10 15L15 20L20 15L15 10L20 5L15 0L10 5Z" fill="#333c62"/></g><g transform="translate(299.44,163.33) scale(1.361) rotate(0)"><path d="M10 5L5 0L0 5L5 10L0 15L5 20L10 15L15 20L20 15L15 10L20 5L15 0L10 5Z" fill="#203ebc"/></g><g transform="translate(272.22,190.56) scale(1.361) rotate(0)"><path d="M10 5L5 0L0 5L5 10L0 15L5 20L10 15L15 20L20 15L15 10L20 5L15 0L10 5Z" fill="#9e3850"/></g><g transform="translate(299.44,190.56) scale(1.361) rotate(0)"><path d="M10 5L5 0L0 5L5 10L0 15L5 20L10 15L15 20L20 15L15 10L20 5L15 0L10 5Z" fill="#223eb3"/></g><g transform="translate(326.67,163.33) scale(2.722) rotate(0)"><path d="M10 5L5 0L0 5L5 10L0 15L5 20L10 15L15 20L20 15L15 10L20 5L15 0L10 5Z" fill="#1a3fd9"/></g><g transform="translate(381.11,163.33) scale(2.722) rotate(0)"><path d="M10 5L5 0L0 5L5 10L0 15L5 20L10 15L15 20L20 15L15 10L20 5L15 0L10 5Z" fill="#a33851"/></g><rect x="435.55555555555554" y="163.33333333333331" width="54.44444444444444" height="54.44444444444444" fill="#3b3b3b"/><g transform="translate(435.56,163.33) scale(1.361) rotate(0)"><path d="M10 5L5 0L0 5L5 10L0 15L5 20L10 15L15 20L20 15L15 10L20 5L15 0L10 5Z" fill="#2c3d82"/></g><g transform="translate(462.78,163.33) scale(1.361) rotate(0)"><path d="M10 5L5 0L0 5L5 10L0 15L5 20L10 15L15 20L20 15L15 10L20 5L15 0L10 5Z" fill="#90384d"/></g><g transform="translate(435.56,190.56) scale(1.361) rotate(0)"><path d="M10 5L5 0L0 5L5 10L0 15L5 20L10 15L15 20L20 15L15 10L20 5L15 0L10 5Z" fill="#8e384d"/></g><g transform="translate(462.78,190.56) scale(1.361) rotate(0)"><path d="M10 5L5 0L0 5L5 10L0 15L5 20L10 15L15 20L20 15L15 10L20 5L15 0L10 5Z" fill="#573a41"/></g><g transform="translate(490,163.33) scale(2.722) rotate(0)"><path d="M10 5L5 0L0 5L5 10L0 15L5 20L10 15L15 20L20 15L15 10L20 5L15 0L10 5Z" fill="#773948"/></g><rect x="544.4444444444445" y="163.33333333333331" width="54.44444444444444" height="54.44444444444444" fill="#3b3b3b"/><g transform="translate(544.44,163.33) scale(1.361) rotate(0)"><path d="M10 5L5 0L0 5L5 10L0 15L5 20L10 15L15 20L20 15L15 10L20 5L15 0L10 5Z" fill="#223eb3"/></g><g transform="translate(571.67,163.33) scale(1.361) rotate(0)"><path d="M10 5L5 0L0 5L5 10L0 15L5 20L10 15L15 20L20 15L15 10L20 5L15 0L10 5Z" fill="#183fdf"/></g><g transform="translate(544.44,190.56) scale(1.361) rotate(0)"><path d="M10 5L5 0L0 5L5 10L0 15L5 20L10 15L15 20L20 15L15 10L20 5L15 0L10 5Z" fill="#91384d"/></g><g transform="translate(571.67,190.56) scale(1.361) rotate(0)"><path d="M10 5L5 0L0 5L5 10L0 15L5 20L10 15L15 20L20 15L15 10L20 5L15 0L10 5Z" fill="#353c55"/></g><rect x="598.8888888888889" y="163.33333333333331" width="54.44444444444444" height="54.44444444444444" fill="#3b3b3b"/><g transform="translate(598.89,163.33) scale(1.361) rotate(0)"><path d="M10 5L5 0L0 5L5 10L0 15L5 20L10 15L15 20L20 15L15 10L20 5L15 0L10 5Z" fill="#5e3a42"/></g><g transform="translate(626.11,163.33) scale(1.361) rotate(0)"><path d="M10 5L5 0L0 5L5 10L0 15L5 20L10 15L15 20L20 15L15 10L20 5L15 0L10 5Z" fill="#413b3c"/></g><g transform="translate(598.89,190.56) scale(1.361) rotate(0)"><path d="M10 5L5 0L0 5L5 10L0 15L5 20L10 15L15 20L20 15L15 10L20 5L15 0L10 5Z" fill="#d7365c"/></g><g transform="translate(626.11,190.56) scale(1.361) rotate(0)"><path d="M10 5L5 0L0 5L5 10L0 15L5 20L10 15L15 20L20 15L15 10L20 5L15 0L10 5Z" fill="#523a40"/></g><g transform="translate(653.33,163.33) scale(2.722) rotate(0)"><path d="M10 5L5 0L0 5L5 10L0 15L5 20L10 15L15 20L20 15L15 10L20 5L15 0L10 5Z" fill="#223eb3"/></g><g transform="translate(707.78,163.33) scale(2.722) rotate(0)"><path d="M10 5L5 0L0 5L5 10L0 15L5 20L10 15L15 20L20 15L15 10L20 5L15 0L10 5Z" fill="#403b3c"/></g><g transform="translate(762.22,163.33) scale(2.722) rotate(0)"><path d="M10 5L5 0L0 5L5 10L0 15L5 20L10 15L15 20L20 15L15 10L20 5L15 0L10 5Z" fill="#80394a"/></g><g transform="translate(816.67,163.33) scale(2.722) rotate(0)"><path d="M10 5L5 0L0 5L5 10L0 15L5 20L10 15L15 20L20 15L15 10L20 5L15 0L10 5Z" fill="#253ea4"/></g><g transform="translate(871.11,163.33) scale(2.722) rotate(0)"><path d="M10 5L5 0L0 5L5 10L0 15L5 20L10 15L15 20L20 15L15 10L20 5L15 0L10 5Z" fill="#1a3fd5"/></g><g transform="translate(0,217.78) scale(2.722) rotate(0)"><path d="M10 5L5 0L0 5L5 10L0 15L5 20L10 15L15 20L20 15L15 10L20 5L15 0L10 5Z" fill="#333c63"/></g><g transform="translate(54.44,217.78) scale(2.722) rotate(0)"><path d="M10 5L5 0L0 5L5 10L0 15L5 20L10 15L15 20L20 15L15 10L20 5L15 0L10 5Z" fill="#293d92"/></g><g transform="translate(108.89,217.78) scale(2.722) rotate(0)"><path d="M10 5L5 0L0 5L5 10L0 15L5 20L10 15L15 20L20 15L15 10L20 5L15 0L10 5Z" fill="#1b3fd1"/></g><g transform="translate(163.33,217.78) scale(2.722) rotate(0)"><path d="M10 5L5 0L0 5L5 10L0 15L5 20L10 15L15 20L20 15L15 10L20 5L15 0L10 5Z" fill="#d3365b"/></g><g transform="translate(217.78,217.78) scale(2.722) rotate(0)"><path d="M10 5L5 0L0 5L5 10L0 15L5 20L10 15L15 20L20 15L15 10L20 5L15 0L10 5Z" fill="#dd365d"/></g><rect x="272.22222222222223" y="217.77777777777777" width="54.44444444444444" height="54.44444444444444" fill="#3b3b3b"/><g transform="translate(272.22,217.78) scale(1.361) rotate(0)"><path d="M10 5L5 0L0 5L5 10L0 15L5 20L10 15L15 20L20 15L15 10L20 5L15 0L10 5Z" fill="#503a3f"/></g><g transform="translate(299.44,217.78) scale(1.361) rotate(0)"><path d="M10 5L5 0L0 5L5 10L0 15L5 20L10 15L15 20L20 15L15 10L20 5L15 0L10 5Z" fill="#503a3f"/></g><g transform="translate(272.22,245) scale(1.361) rotate(0)"><path d="M10 5L5 0L0 5L5 10L0 15L5 20L10 15L15 20L20 15L15 10L20 5L15 0L10 5Z" fill="#293d92"/></g><g transform="translate(299.44,245) scale(1.361) rotate(0)"><path d="M10 5L5 0L0 5L5 10L0 15L5 20L10 15L15 20L20 15L15 10L20 5L15 0L10 5Z" fill="#513a40"/></g><g transform="translate(326.67,217.78) scale(2.722) rotate(0)"><path d="M10 5L5 0L0 5L5 10L0 15L5 20L10 15L15 20L20 15L15 10L20 5L15 0L10 5Z" fill="#233ead"/></g><rect x="381.1111111111111" y="217.77777777777777" width="54.44444444444444" height="54.44444444444444" fill="#3b3b3b"/><g transform="translate(381.11,217.78) scale(1.361) rotate(0)"><path d="M10 5L5 0L0 5L5 10L0 15L5 20L10 15L15 20L20 15L15 10L20 5L15 0L10 5Z" fill="#263d9f"/></g><g transform="translate(408.33,217.78) scale(1.361) rotate(0)"><path d="M10 5L5 0L0 5L5 10L0 15L5 20L10 15L15 20L20 15L15 10L20 5L15 0L10 5Z" fill="#b93756"/></g><g transform="translate(381.11,245) scale(1.361) rotate(0)"><path d="M10 5L5 0L0 5L5 10L0 15L5 20L10 15L15 20L20 15L15 10L20 5L15 0L10 5Z" fill="#573a41"/></g><g transform="translate(408.33,245) scale(1.361) rotate(0)"><path d="M10 5L5 0L0 5L5 10L0 15L5 20L10 15L15 20L20 15L15 10L20 5L15 0L10 5Z" fill="#233eab"/></g><g transform="translate(435.56,217.78) scale(2.722) rotate(0)"><path d="M10 5L5 0L0 5L5 10L0 15L5 20L10 15L15 20L20 15L15 10L20 5L15 0L10 5Z" fill="#b53755"/></g><g transform="translate(490,217.78) scale(2.722) rotate(0)"><path d="M10 5L5 0L0 5L5 10L0 15L5 20L10 15L15 20L20 15L15 10L20 5L15 0L10 5Z" fill="#c43758"/></g><g transform="translate(544.44,217.78) scale(2.722) rotate(0)"><path d="M10 5L5 0L0 5L5 10L0 15L5 20L10 15L15 20L20 15L15 10L20 5L15 0L10 5Z" fill="#96384e"/></g><g transform="translate(598.89,217.78) scale(2.722) rotate(0)"><path d="M10 5L5 0L0 5L5 10L0 15L5 20L10 15L15 20L20 15L15 10L20 5L15 0L10 5Z" fill="#223eb0"/></g><g transform="translate(653.33,217.78) scale(2.722) rotate(0)"><path d="M10 5L5 0L0 5L5 10L0 15L5 20L10 15L15 20L20 15L15 10L20 5L15 0L10 5Z" fill="#ae3753"/></g><rect x="707.7777777777777" y="217.77777777777777" width="54.44444444444444" height="54.44444444444444" fill="#3b3b3b"/><g transform="translate(707.78,217.78) scale(1.361) rotate(0)"><path d="M10 5L5 0L0 5L5 10L0 15L5 20L10 15L15 20L20 15L15 10L20 5L15 0L10 5Z" fill="#1c3fcd"/></g><g transform="translate(735,217.78) scale(1.361) rotate(0)"><path d="M10 5L5 0L0 5L5 10L0 15L5 20L10 15L15 20L20 15L15 10L20 5L15 0L10 5Z" fill="#333c5f"/></g><g transform="translate(707.78,245) scale(1.361) rotate(0)"><path d="M10 5L5 0L0 5L5 10L0 15L5 20L10 15L15 20L20 15L15 10L20 5L15 0L10 5Z" fill="#bd3756"/></g><g transform="translate(735,245) scale(1.361) rotate(0)"><path d="M10 5L5 0L0 5L5 10L0 15L5 20L10 15L15 20L20 15L15 10L20 5L15 0L10 5Z" fill="#343c5a"/></g><g transform="translate(762.22,217.78) scale(2.722) rotate(0)"><path d="M10 5L5 0L0 5L5 10L0 15L5 20L10 15L15 20L20 15L15 10L20 5L15 0L10 5Z" fill="#f13561"/></g><rect x="816.6666666666666" y="217.77777777777777" width="54.44444444444444" height="54.44444444444444" fill="#3b3b3b"/><g transform="translate(816.67,217.78) scale(1.361) rotate(0)"><path d="M10 5L5 0L0 5L5 10L0 15L5 20L10 15L15 20L20 15L15 10L20 5L15 0L10 5Z" fill="#2f3c74"/></g><g transform="translate(843.89,217.78) scale(1.361) rotate(0)"><path d="M10 5L5 0L0 5L5 10L0 15L5 20L10 15L15 20L20 15L15 10L20 5L15 0L10 5Z" fill="#223eb2"/></g><g transform="translate(816.67,245) scale(1.361) rotate(0)"><path d="M10 5L5 0L0 5L5 10L0 15L5 20L10 15L15 20L20 15L15 10L20 5L15 0L10 5Z" fill="#db365d"/></g><g transform="translate(843.89,245) scale(1.361) rotate(0)"><path d="M10 5L5 0L0 5L5 10L0 15L5 20L10 15L15 20L20 15L15 10L20 5L15 0L10 5Z" fill="#383b47"/></g><g transform="translate(871.11,217.78) scale(2.722) rotate(0)"><path d="M10 5L5 0L0 5L5 10L0 15L5 20L10 15L15 20L20 15L15 10L20 5L15 0L10 5Z" fill="#df365e"/></g><g transform="translate(0,272.22) scale(2.722) rotate(0)"><path d="M10 5L5 0L0 5L5 10L0 15L5 20L10 15L15 20L20 15L15 10L20 5L15 0L10 5Z" fill="#f53562"/></g><rect x="54.44444444444444" y="272.22222222222223" width="54.44444444444444" height="54.44444444444444" fill="#3b3b3b"/><g transform="translate(54.44,272.22) scale(1.361) rotate(0)"><path d="M10 5L5 0L0 5L5 10L0 15L5 20L10 15L15 20L20 15L15 10L20 5L15 0L10 5Z" fill="#d8365c"/></g><g transform="translate(81.67,272.22) scale(1.361) rotate(0)"><path d="M10 5L5 0L0 5L5 10L0 15L5 20L10 15L15 20L20 15L15 10L20 5L15 0L10 5Z" fill="#2b3d87"/></g><g transform="translate(54.44,299.44) scale(1.361) rotate(0)"><path d="M10 5L5 0L0 5L5 10L0 15L5 20L10 15L15 20L20 15L15 10L20 5L15 0L10 5Z" fill="#603a43"/></g><g transform="translate(81.67,299.44) scale(1.361) rotate(0)"><path d="M10 5L5 0L0 5L5 10L0 15L5 20L10 15L15 20L20 15L15 10L20 5L15 0L10 5Z" fill="#ac3853"/></g><g transform="translate(108.89,272.22) scale(2.722) rotate(0)"><path d="M10 5L5 0L0 5L5 10L0 15L5 20L10 15L15 20L20 15L15 10L20 5L15 0L10 5Z" fill="#b03754"/></g><rect x="163.33333333333331" y="272.22222222222223" width="54.44444444444444" height="54.44444444444444" fill="#3b3b3b"/><g transform="translate(163.33,272.22) scale(1.361) rotate(0)"><path d="M10 5L5 0L0 5L5 10L0 15L5 20L10 15L15 20L20 15L15 10L20 5L15 0L10 5Z" fill="#9e3850"/></g><g transform="translate(190.56,272.22) scale(1.361) rotate(0)"><path d="M10 5L5 0L0 5L5 10L0 15L5 20L10 15L15 20L20 15L15 10L20 5L15 0L10 5Z" fill="#6b3a45"/></g><g transform="translate(163.33,299.44) scale(1.361) rotate(0)"><path d="M10 5L5 0L0 5L5 10L0 15L5 20L10 15L15 20L20 15L15 10L20 5L15 0L10 5Z" fill="#99384f"/></g><g transform="translate(190.56,299.44) scale(1.361) rotate(0)"><path d="M10 5L5 0L0 5L5 10L0 15L5 20L10 15L15 20L20 15L15 10L20 5L15 0L10 5Z" fill="#1c3ecc"/></g><g transform="translate(217.78,272.22) scale(2.722) rotate(0)"><path d="M10 5L5 0L0 5L5 10L0 15L5 20L10 15L15 20L20 15L15 10L20 5L15 0L10 5Z" fill="#373c50"/></g><rect x="272.22222222222223" y="272.22222222222223" width="54.44444444444444" height="54.44444444444444" fill="#3b3b3b"/><g transform="translate(272.22,272.22) scale(1.361) rotate(0)"><path d="M10 5L5 0L0 5L5 10L0 15L5 20L10 15L15 20L20 15L15 10L20 5L15 0L10 5Z" fill="#1f3ec0"/></g><g transform="translate(299.44,272.22) scale(1.361) rotate(0)"><path d="M10 5L5 0L0 5L5 10L0 15L5 20L10 15L15 20L20 15L15 10L20 5L15 0L10 5Z" fill="#693a45"/></g><g transform="translate(272.22,299.44) scale(1.361) rotate(0)"><path d="M10 5L5 0L0 5L5 10L0 15L5 20L10 15L15 20L20 15L15 10L20 5L15 0L10 5Z" fill="#85394b"/></g><g transform="translate(299.44,299.44) scale(1.361) rotate(0)"><path d="M10 5L5 0L0 5L5 10L0 15L5 20L10 15L15 20L20 15L15 10L20 5L15 0L10 5Z" fill="#2c3d80"/></g><g transform="translate(326.67,272.22) scale(2.722) rotate(0)"><path d="M10 5L5 0L0 5L5 10L0 15L5 20L10 15L15 20L20 15L15 10L20 5L15 0L10 5Z" fill="#333c63"/></g><g transform="translate(381.11,272.22) scale(2.722) rotate(0)"><path d="M10 5L5 0L0 5L5 10L0 15L5 20L10 15L15 20L20 15L15 10L20 5L15 0L10 5Z" fill="#8c384c"/></g><g transform="translate(435.56,272.22) scale(2.722) rotate(0)"><path d="M10 5L5 0L0 5L5 10L0 15L5 20L10 15L15 20L20 15L15 10L20 5L15 0L10 5Z" fill="#283d95"/></g><g transform="translate(490,272.22) scale(2.722) rotate(0)"><path d="M10 5L5 0L0 5L5 10L0 15L5 20L10 15L15 20L20 15L15 10L20 5L15 0L10 5Z" fill="#353c56"/></g><rect x="544.4444444444445" y="272.22222222222223" width="54.44444444444444" height="54.44444444444444" fill="#3b3b3b"/><g transform="translate(544.44,272.22) scale(1.361) rotate(0)"><path d="M10 5L5 0L0 5L5 10L0 15L5 20L10 15L15 20L20 15L15 10L20 5L15 0L10 5Z" fill="#85394b"/></g><g transform="translate(571.67,272.22) scale(1.361) rotate(0)"><path d="M10 5L5 0L0 5L5 10L0 15L5 20L10 15L15 20L20 15L15 10L20 5L15 0L10 5Z" fill="#273d99"/></g><g transform="translate(544.44,299.44) scale(1.361) rotate(0)"><path d="M10 5L5 0L0 5L5 10L0 15L5 20L10 15L15 20L20 15L15 10L20 5L15 0L10 5Z" fill="#723947"/></g><g transform="translate(571.67,299.44) scale(1.361) rotate(0)"><path d="M10 5L5 0L0 5L5 10L0 15L5 20L10 15L15 20L20 15L15 10L20 5L15 0L10 5Z" fill="#1e3ec3"/></g><g transform="translate(598.89,272.22) scale(2.722) rotate(0)"><path d="M10 5L5 0L0 5L5 10L0 15L5 20L10 15L15 20L20 15L15 10L20 5L15 0L10 5Z" fill="#443b3d"/></g><g transform="translate(653.33,272.22) scale(2.722) rotate(0)"><path d="M10 5L5 0L0 5L5 10L0 15L5 20L10 15L15 20L20 15L15 10L20 5L15 0L10 5Z" fill="#193fdb"/></g><g transform="translate(707.78,272.22) scale(2.722) rotate(0)"><path d="M10 5L5 0L0 5L5 10L0 15L5 20L10 15L15 20L20 15L15 10L20 5L15 0L10 5Z" fill="#323c64"/></g><g transform="translate(762.22,272.22) scale(2.722) rotate(0)"><path d="M10 5L5 0L0 5L5 10L0 15L5 20L10 15L15 20L20 15L15 10L20 5L15 0L10 5Z" fill="#353c56"/></g><g transform="translate(816.67,272.22) scale(2.722) rotate(0)"><path d="M10 5L5 0L0 5L5 10L0 15L5 20L10 15L15 20L20 15L15 10L20 5L15 0L10 5Z" fill="#7d3949"/></g><g transform="translate(871.11,272.22) scale(2.722) rotate(0)"><path d="M10 5L5 0L0 5L5 10L0 15L5 20L10 15L15 20L20 15L15 10L20 5L15 0L10 5Z" fill="#223eb0"/></g><g transform="translate(0,326.67) scale(2.722) rotate(0)"><path d="M10 5L5 0L0 5L5 10L0 15L5 20L10 15L15 20L20 15L15 10L20 5L15 0L10 5Z" fill="#ab3853"/></g><g transform="translate(54.44,326.67) scale(2.722) rotate(0)"><path d="M10 5L5 0L0 5L5 10L0 15L5 20L10 15L15 20L20 15L15 10L20 5L15 0L10 5Z" fill="#2a3d8b"/></g><g transform="translate(108.89,326.67) scale(2.722) rotate(0)"><path d="M10 5L5 0L0 5L5 10L0 15L5 20L10 15L15 20L20 15L15 10L20 5L15 0L10 5Z" fill="#313c68"/></g><g transform="translate(163.33,326.67) scale(2.722) rotate(0)"><path d="M10 5L5 0L0 5L5 10L0 15L5 20L10 15L15 20L20 15L15 10L20 5L15 0L10 5Z" fill="#1d3ec9"/></g><g transform="translate(217.78,326.67) scale(2.722) rotate(0)"><path d="M10 5L5 0L0 5L5 10L0 15L5 20L10 15L15 20L20 15L15 10L20 5L15 0L10 5Z" fill="#2f3c75"/></g><g transform="translate(272.22,326.67) scale(2.722) rotate(0)"><path d="M10 5L5 0L0 5L5 10L0 15L5 20L10 15L15 20L20 15L15 10L20 5L15 0L10 5Z" fill="#84394a"/></g><g transform="translate(326.67,326.67) scale(2.722) rotate(0)"><path d="M10 5L5 0L0 5L5 10L0 15L5 20L10 15L15 20L20 15L15 10L20 5L15 0L10 5Z" fill="#283d94"/></g><g transform="translate(381.11,326.67) scale(2.722) rotate(0)"><path d="M10 5L5 0L0 5L5 10L0 15L5 20L10 15L15 20L20 15L15 10L20 5L15 0L10 5Z" fill="#1a3fd5"/></g><g transform="translate(435.56,326.67) scale(2.722) rotate(0)"><path d="M10 5L5 0L0 5L5 10L0 15L5 20L10 15L15 20L20 15L15 10L20 5L15 0L10 5Z" fill="#273d9b"/></g><g transform="translate(490,326.67) scale(2.722) rotate(0)"><path d="M10 5L5 0L0 5L5 10L0 15L5 20L10 15L15 20L20 15L15 10L20 5L15 0L10 5Z" fill="#383b48"/></g><g transform="translate(544.44,326.67) scale(2.722) rotate(0)"><path d="M10 5L5 0L0 5L5 10L0 15L5 20L10 15L15 20L20 15L15 10L20 5L15 0L10 5Z" fill="#2c3d83"/></g><g transform="translate(598.89,326.67) scale(2.722) rotate(0)"><path d="M10 5L5 0L0 5L5 10L0 15L5 20L10 15L15 20L20 15L15 10L20 5L15 0L10 5Z" fill="#183fe1"/></g><g transform="translate(653.33,326.67) scale(2.722) rotate(0)"><path d="M10 5L5 0L0 5L5 10L0 15L5 20L10 15L15 20L20 15L15 10L20 5L15 0L10 5Z" fill="#243ea6"/></g><rect x="707.7777777777777" y="326.66666666666663" width="54.44444444444444" height="54.44444444444444" fill="#3b3b3b"/><g transform="translate(707.78,326.67) scale(1.361) rotate(0)"><path d="M10 5L5 0L0 5L5 10L0 15L5 20L10 15L15 20L20 15L15 10L20 5L15 0L10 5Z" fill="#393b46"/></g><g transform="translate(735,326.67) scale(1.361) rotate(0)"><path d="M10 5L5 0L0 5L5 10L0 15L5 20L10 15L15 20L20 15L15 10L20 5L15 0L10 5Z" fill="#5b3a42"/></g><g transform="translate(707.78,353.89) scale(1.361) rotate(0)"><path d="M10 5L5 0L0 5L5 10L0 15L5 20L10 15L15 20L20 15L15 10L20 5L15 0L10 5Z" fill="#203ebc"/></g><g transform="translate(735,353.89) scale(1.361) rotate(0)"><path d="M10 5L5 0L0 5L5 10L0 15L5 20L10 15L15 20L20 15L15 10L20 5L15 0L10 5Z" fill="#2d3d80"/></g><g transform="translate(762.22,326.67) scale(2.722) rotate(0)"><path d="M10 5L5 0L0 5L5 10L0 15L5 20L10 15L15 20L20 15L15 10L20 5L15 0L10 5Z" fill="#93384e"/></g><rect x="816.6666666666666" y="326.66666666666663" width="54.44444444444444" height="54.44444444444444" fill="#3b3b3b"/><g transform="translate(816.67,326.67) scale(1.361) rotate(0)"><path d="M10 5L5 0L0 5L5 10L0 15L5 20L10 15L15 20L20 15L15 10L20 5L15 0L10 5Z" fill="#d5365c"/></g><g transform="translate(843.89,326.67) scale(1.361) rotate(0)"><path d="M10 5L5 0L0 5L5 10L0 15L5 20L10 15L15 20L20 15L15 10L20 5L15 0L10 5Z" fill="#433b3d"/></g><g transform="translate(816.67,353.89) scale(1.361) rotate(0)"><path d="M10 5L5 0L0 5L5 10L0 15L5 20L10 15L15 20L20 15L15 10L20 5L15 0L10 5Z" fill="#b43754"/></g><g transform="translate(843.89,353.89) scale(1.361) rotate(0)"><path d="M10 5L5 0L0 5L5 10L0 15L5 20L10 15L15 20L20 15L15 10L20 5L15 0L10 5Z" fill="#583a41"/></g><g transform="translate(871.11,326.67) scale(2.722) rotate(0)"><path d="M10 5L5 0L0 5L5 10L0 15L5 20L10 15L15 20L20 15L15 10L20 5L15 0L10 5Z" fill="#353c57"/></g><g transform="translate(0,381.11) scale(2.722) rotate(0)"><path d="M10 5L5 0L0 5L5 10L0 15L5 20L10 15L15 20L20 15L15 10L20 5L15 0L10 5Z" fill="#d8365c"/></g><rect x="54.44444444444444" y="381.1111111111111" width="54.44444444444444" height="54.44444444444444" fill="#3b3b3b"/><g transform="translate(54.44,381.11) scale(1.361) rotate(0)"><path d="M10 5L5 0L0 5L5 10L0 15L5 20L10 15L15 20L20 15L15 10L20 5L15 0L10 5Z" fill="#8b394c"/></g><g transform="translate(81.67,381.11) scale(1.361) rotate(0)"><path d="M10 5L5 0L0 5L5 10L0 15L5 20L10 15L15 20L20 15L15 10L20 5L15 0L10 5Z" fill="#e0365e"/></g><g transform="translate(54.44,408.33) scale(1.361) rotate(0)"><path d="M10 5L5 0L0 5L5 10L0 15L5 20L10 15L15 20L20 15L15 10L20 5L15 0L10 5Z" fill="#2a3d8c"/></g><g transform="translate(81.67,408.33) scale(1.361) rotate(0)"><path d="M10 5L5 0L0 5L5 10L0 15L5 20L10 15L15 20L20 15L15 10L20 5L15 0L10 5Z" fill="#c13757"/></g><g transform="translate(108.89,381.11) scale(2.722) rotate(0)"><path d="M10 5L5 0L0 5L5 10L0 15L5 20L10 15L15 20L20 15L15 10L20 5L15 0L10 5Z" fill="#183fe0"/></g><rect x="163.33333333333331" y="381.1111111111111" width="54.44444444444444" height="54.44444444444444" fill="#3b3b3b"/><g transform="translate(163.33,381.11) scale(1.361) rotate(0)"><path d="M10 5L5 0L0 5L5 10L0 15L5 20L10 15L15 20L20 15L15 10L20 5L15 0L10 5Z" fill="#ed3661"/></g><g transform="translate(190.56,381.11) scale(1.361) rotate(0)"><path d="M10 5L5 0L0 5L5 10L0 15L5 20L10 15L15 20L20 15L15 10L20 5L15 0L10 5Z" fill="#343c5d"/></g><g transform="translate(163.33,408.33) scale(1.361) rotate(0)"><path d="M10 5L5 0L0 5L5 10L0 15L5 20L10 15L15 20L20 15L15 10L20 5L15 0L10 5Z" fill="#2a3d8a"/></g><g transform="translate(190.56,408.33) scale(1.361) rotate(0)"><path d="M10 5L5 0L0 5L5 10L0 15L5 20L10 15L15 20L20 15L15 10L20 5L15 0L10 5Z" fill="#2d3d7f"/></g><rect x="217.77777777777777" y="381.1111111111111" width="54.44444444444444" height="54.44444444444444" fill="#3b3b3b"/><g transform="translate(217.78,381.11) scale(1.361) rotate(0)"><path d="M10 5L5 0L0 5L5 10L0 15L5 20L10 15L15 20L20 15L15 10L20 5L15 0L10 5Z" fill="#2e3c77"/></g><g transform="translate(245,381.11) scale(1.361) rotate(0)"><path d="M10 5L5 0L0 5L5 10L0 15L5 20L10 15L15 20L20 15L15 10L20 5L15 0L10 5Z" fill="#1f3ec2"/></g><g transform="translate(217.78,408.33) scale(1.361) rotate(0)"><path d="M10 5L5 0L0 5L5 10L0 15L5 20L10 15L15 20L20 15L15 10L20 5L15 0L10 5Z" fill="#d9365c"/></g><g transform="translate(245,408.33) scale(1.361) rotate(0)"><path d="M10 5L5 0L0 5L5 10L0 15L5 20L10 15L15 20L20 15L15 10L20 5L15 0L10 5Z" fill="#233eab"/></g><g transform="translate(272.22,381.11) scale(2.722) rotate(0)"><path d="M10 5L5 0L0 5L5 10L0 15L5 20L10 15L15 20L20 15L15 10L20 5L15 0L10 5Z" fill="#343c5b"/></g><rect x="326.66666666666663" y="381.1111111111111" width="54.44444444444444" height="54.44444444444444" fill="#3b3b3b"/><g transform="translate(326.67,381.11) scale(1.361) rotate(0)"><path d="M10 5L5 0L0 5L5 10L0 15L5 20L10 15L15 20L20 15L15 10L20 5L15 0L10 5Z" fill="#633a43"/></g><g transform="translate(353.89,381.11) scale(1.361) rotate(0)"><path d="M10 5L5 0L0 5L5 10L0 15L5 20L10 15L15 20L20 15L15 10L20 5L15 0L10 5Z" fill="#363c55"/></g><g transform="translate(326.67,408.33) scale(1.361) rotate(0)"><path d="M10 5L5 0L0 5L5 10L0 15L5 20L10 15L15 20L20 15L15 10L20 5L15 0L10 5Z" fill="#373b4e"/></g><g transform="translate(353.89,408.33) scale(1.361) rotate(0)"><path d="M10 5L5 0L0 5L5 10L0 15L5 20L10 15L15 20L20 15L15 10L20 5L15 0L10 5Z" fill="#273d9a"/></g><g transform="translate(381.11,381.11) scale(2.722) rotate(0)"><path d="M10 5L5 0L0 5L5 10L0 15L5 20L10 15L15 20L20 15L15 10L20 5L15 0L10 5Z" fill="#cd365a"/></g><rect x="435.55555555555554" y="381.1111111111111" width="54.44444444444444" height="54.44444444444444" fill="#3b3b3b"/><g transform="translate(435.56,381.11) scale(1.361) rotate(0)"><path d="M10 5L5 0L0 5L5 10L0 15L5 20L10 15L15 20L20 15L15 10L20 5L15 0L10 5Z" fill="#3c3b3b"/></g><g transform="translate(462.78,381.11) scale(1.361) rotate(0)"><path d="M10 5L5 0L0 5L5 10L0 15L5 20L10 15L15 20L20 15L15 10L20 5L15 0L10 5Z" fill="#9b384f"/></g><g transform="translate(435.56,408.33) scale(1.361) rotate(0)"><path d="M10 5L5 0L0 5L5 10L0 15L5 20L10 15L15 20L20 15L15 10L20 5L15 0L10 5Z" fill="#473b3e"/></g><g transform="translate(462.78,408.33) scale(1.361) rotate(0)"><path d="M10 5L5 0L0 5L5 10L0 15L5 20L10 15L15 20L20 15L15 10L20 5L15 0L10 5Z" fill="#a33851"/></g><g transform="translate(490,381.11) scale(2.722) rotate(0)"><path d="M10 5L5 0L0 5L5 10L0 15L5 20L10 15L15 20L20 15L15 10L20 5L15 0L10 5Z" fill="#183fe0"/></g><rect x="544.4444444444445" y="381.1111111111111" width="54.44444444444444" height="54.44444444444444" fill="#3b3b3b"/><g transform="translate(544.44,381.11) scale(1.361) rotate(0)"><path d="M10 5L5 0L0 5L5 10L0 15L5 20L10 15L15 20L20 15L15 10L20 5L15 0L10 5Z" fill="#3a3b41"/></g><g transform="translate(571.67,381.11) scale(1.361) rotate(0)"><path d="M10 5L5 0L0 5L5 10L0 15L5 20L10 15L15 20L20 15L15 10L20 5L15 0L10 5Z" fill="#3d3b3b"/></g><g transform="translate(544.44,408.33) scale(1.361) rotate(0)"><path d="M10 5L5 0L0 5L5 10L0 15L5 20L10 15L15 20L20 15L15 10L20 5L15 0L10 5Z" fill="#1c3ecc"/></g><g transform="translate(571.67,408.33) scale(1.361) rotate(0)"><path d="M10 5L5 0L0 5L5 10L0 15L5 20L10 15L15 20L20 15L15 10L20 5L15 0L10 5Z" fill="#2d3d7c"/></g><g transform="translate(598.89,381.11) scale(2.722) rotate(0)"><path d="M10 5L5 0L0 5L5 10L0 15L5 20L10 15L15 20L20 15L15 10L20 5L15 0L10 5Z" fill="#213eb5"/></g><g transform="translate(653.33,381.11) scale(2.722) rotate(0)"><path d="M10 5L5 0L0 5L5 10L0 15L5 20L10 15L15 20L20 15L15 10L20 5L15 0L10 5Z" fill="#383b47"/></g><rect x="707.7777777777777" y="381.1111111111111" width="54.44444444444444" height="54.44444444444444" fill="#3b3b3b"/><g transform="translate(707.78,381.11) scale(1.361) rotate(0)"><path d="M10 5L5 0L0 5L5 10L0 15L5 20L10 15L15 20L20 15L15 10L20 5L15 0L10 5Z" fill="#95384e"/></g><g transform="translate(735,381.11) scale(1.361) rotate(0)"><path d="M10 5L5 0L0 5L5 10L0 15L5 20L10 15L15 20L20 15L15 10L20 5L15 0L10 5Z" fill="#a73852"/></g><g transform="translate(707.78,408.33) scale(1.361) rotate(0)"><path d="M10 5L5 0L0 5L5 10L0 15L5 20L10 15L15 20L20 15L15 10L20 5L15 0L10 5Z" fill="#343c5d"/></g><g transform="translate(735,408.33) scale(1.361) rotate(0)"><path d="M10 5L5 0L0 5L5 10L0 15L5 20L10 15L15 20L20 15L15 10L20 5L15 0L10 5Z" fill="#5d3a42"/></g><g transform="translate(762.22,381.11) scale(2.722) rotate(0)"><path d="M10 5L5 0L0 5L5 10L0 15L5 20L10 15L15 20L20 15L15 10L20 5L15 0L10 5Z" fill="#783948"/></g><g transform="translate(816.67,381.11) scale(2.722) rotate(0)"><path d="M10 5L5 0L0 5L5 10L0 15L5 20L10 15L15 20L20 15L15 10L20 5L15 0L10 5Z" fill="#1f3ec0"/></g><g transform="translate(871.11,381.11) scale(2.722) rotate(0)"><path d="M10 5L5 0L0 5L5 10L0 15L5 20L10 15L15 20L20 15L15 10L20 5L15 0L10 5Z" fill="#5d3a42"/></g><g transform="translate(0,435.56) scale(2.722) rotate(0)"><path d="M10 5L5 0L0 5L5 10L0 15L5 20L10 15L15 20L20 15L15 10L20 5L15 0L10 5Z" fill="#f43562"/></g><g transform="translate(54.44,435.56) scale(2.722) rotate(0)"><path d="M10 5L5 0L0 5L5 10L0 15L5 20L10 15L15 20L20 15L15 10L20 5L15 0L10 5Z" fill="#513a40"/></g><g transform="translate(108.89,435.56) scale(2.722) rotate(0)"><path d="M10 5L5 0L0 5L5 10L0 15L5 20L10 15L15 20L20 15L15 10L20 5L15 0L10 5Z" fill="#ea3660"/></g><rect x="163.33333333333331" y="435.55555555555554" width="54.44444444444444" height="54.44444444444444" fill="#3b3b3b"/><g transform="translate(163.33,435.56) scale(1.361) rotate(0)"><path d="M10 5L5 0L0 5L5 10L0 15L5 20L10 15L15 20L20 15L15 10L20 5L15 0L10 5Z" fill="#233eab"/></g><g transform="translate(190.56,435.56) scale(1.361) rotate(0)"><path d="M10 5L5 0L0 5L5 10L0 15L5 20L10 15L15 20L20 15L15 10L20 5L15 0L10 5Z" fill="#6e3946"/></g><g transform="translate(163.33,462.78) scale(1.361) rotate(0)"><path d="M10 5L5 0L0 5L5 10L0 15L5 20L10 15L15 20L20 15L15 10L20 5L15 0L10 5Z" fill="#4f3a3f"/></g><g transform="translate(190.56,462.78) scale(1.361) rotate(0)"><path d="M10 5L5 0L0 5L5 10L0 15L5 20L10 15L15 20L20 15L15 10L20 5L15 0L10 5Z" fill="#253ea4"/></g><g transform="translate(217.78,435.56) scale(2.722) rotate(0)"><path d="M10 5L5 0L0 5L5 10L0 15L5 20L10 15L15 20L20 15L15 10L20 5L15 0L10 5Z" fill="#88394b"/></g><rect x="272.22222222222223" y="435.55555555555554" width="54.44444444444444" height="54.44444444444444" fill="#3b3b3b"/><g transform="translate(272.22,435.56) scale(1.361) rotate(0)"><path d="M10 5L5 0L0 5L5 10L0 15L5 20L10 15L15 20L20 15L15 10L20 5L15 0L10 5Z" fill="#193fdc"/></g><g transform="translate(299.44,435.56) scale(1.361) rotate(0)"><path d="M10 5L5 0L0 5L5 10L0 15L5 20L10 15L15 20L20 15L15 10L20 5L15 0L10 5Z" fill="#1a3fd5"/></g><g transform="translate(272.22,462.78) scale(1.361) rotate(0)"><path d="M10 5L5 0L0 5L5 10L0 15L5 20L10 15L15 20L20 15L15 10L20 5L15 0L10 5Z" fill="#513a40"/></g><g transform="translate(299.44,462.78) scale(1.361) rotate(0)"><path d="M10 5L5 0L0 5L5 10L0 15L5 20L10 15L15 20L20 15L15 10L20 5L15 0L10 5Z" fill="#363c52"/></g><g transform="translate(326.67,435.56) scale(2.722) rotate(0)"><path d="M10 5L5 0L0 5L5 10L0 15L5 20L10 15L15 20L20 15L15 10L20 5L15 0L10 5Z" fill="#253ea4"/></g><g transform="translate(381.11,435.56) scale(2.722) rotate(0)"><path d="M10 5L5 0L0 5L5 10L0 15L5 20L10 15L15 20L20 15L15 10L20 5L15 0L10 5Z" fill="#d5365c"/></g><g transform="translate(435.56,435.56) scale(2.722) rotate(0)"><path d="M10 5L5 0L0 5L5 10L0 15L5 20L10 15L15 20L20 15L15 10L20 5L15 0L10 5Z" fill="#203ebb"/></g><g transform="translate(490,435.56) scale(2.722) rotate(0)"><path d="M10 5L5 0L0 5L5 10L0 15L5 20L10 15L15 20L20 15L15 10L20 5L15 0L10 5Z" fill="#653a44"/></g><g transform="translate(544.44,435.56) scale(2.722) rotate(0)"><path d="M10 5L5 0L0 5L5 10L0 15L5 20L10 15L15 20L20 15L15 10L20 5L15 0L10 5Z" fill="#263d9f"/></g><g transform="translate(598.89,435.56) scale(2.722) rotate(0)"><path d="M10 5L5 0L0 5L5 10L0 15L5 20L10 15L15 20L20 15L15 10L20 5L15 0L10 5Z" fill="#263d9f"/></g><g transform="translate(653.33,435.56) scale(2.722) rotate(0)"><path d="M10 5L5 0L0 5L5 10L0 15L5 20L10 15L15 20L20 15L15 10L20 5L15 0L10 5Z" fill="#453b3d"/></g><g transform="translate(707.78,435.56) scale(2.722) rotate(0)"><path d="M10 5L5 0L0 5L5 10L0 15L5 20L10 15L15 20L20 15L15 10L20 5L15 0L10 5Z" fill="#213eb8"/></g><g transform="translate(762.22,435.56) scale(2.722) rotate(0)"><path d="M10 5L5 0L0 5L5 10L0 15L5 20L10 15L15 20L20 15L15 10L20 5L15 0L10 5Z" fill="#283d93"/></g><rect x="816.6666666666666" y="435.55555555555554" width="54.44444444444444" height="54.44444444444444" fill="#3b3b3b"/><g transform="translate(816.67,435.56) scale(1.361) rotate(0)"><path d="M10 5L5 0L0 5L5 10L0 15L5 20L10 15L15 20L20 15L15 10L20 5L15 0L10 5Z" fill="#c93759"/></g><g transform="translate(843.89,435.56) scale(1.361) rotate(0)"><path d="M10 5L5 0L0 5L5 10L0 15L5 20L10 15L15 20L20 15L15 10L20 5L15 0L10 5Z" fill="#5c3a42"/></g><g transform="translate(816.67,462.78) scale(1.361) rotate(0)"><path d="M10 5L5 0L0 5L5 10L0 15L5 20L10 15L15 20L20 15L15 10L20 5L15 0L10 5Z" fill="#213eb6"/></g><g transform="translate(843.89,462.78) scale(1.361) rotate(0)"><path d="M10 5L5 0L0 5L5 10L0 15L5 20L10 15L15 20L20 15L15 10L20 5L15 0L10 5Z" fill="#8e384d"/></g><g transform="translate(871.11,435.56) scale(2.722) rotate(0)"><path d="M10 5L5 0L0 5L5 10L0 15L5 20L10 15L15 20L20 15L15 10L20 5L15 0L10 5Z" fill="#2a3d8b"/></g></g></svg>